<svg width="16" height="19" fill="none" xmlns="http://www.w3.org/2000/svg"><path d="M1 2.796c0-.477.164-.933.456-1.27A1.458 1.458 0 012.556 1h2.55a.71.71 0 01.455.17.9.9 0 01.283.444l1.165 4.034c.06.205.052.427-.02.627a.86.86 0 01-.37.46L4.863 7.748c.86 2.198 2.386 3.958 4.29 4.952l.88-2.027a.836.836 0 01.397-.428.681.681 0 01.543-.022l3.495 1.345c.155.06.29.173.385.326a.995.995 0 01.147.526v2.943c0 .477-.164.933-.456 1.27a1.458 1.458 0 01-1.1.526h-.777C6.224 17.16 1 11.13 1 3.693v-.897z" stroke="#F3A800" stroke-width="2" stroke-linecap="round" stroke-linejoin="round"/></svg>